<svg width="65" height="65" viewBox="0 0 65 65" fill="none" xmlns="http://www.w3.org/2000/svg">
<path d="M7.72588 3.24976C5.25281 3.24976 3.24982 5.25274 3.24982 7.72582V56.799C3.24982 59.2721 5.25281 61.2751 7.72588 61.2751H56.799C59.2517 61.2751 61.2547 59.2721 61.2547 56.799V7.72582C61.2547 5.25274 59.2517 3.24976 56.799 3.24976H7.72588Z" fill="url(#paint0_radial_14_165)"/>
<path fill-rule="evenodd" clip-rule="evenodd" d="M64.5248 8.91125V55.634C64.5248 60.5392 60.5188 64.5248 55.6135 64.5248H8.89081C3.98553 64.5248 0 60.5392 0 55.634V8.91125C0 3.98554 3.98553 0 8.89081 0H55.6135C60.5188 0 64.5248 3.98554 64.5248 8.91125ZM8.89081 0.776669C4.41475 0.776669 0.776666 4.41475 0.776666 8.91125V55.634C0.776666 60.11 4.41475 63.7481 8.89081 63.7481H55.6135C60.0896 63.7481 63.7481 60.11 63.7481 55.634V8.91125C63.7481 4.41475 60.0896 0.776669 55.6135 0.776669H8.89081Z" fill="#301405"/>
<path fill-rule="evenodd" clip-rule="evenodd" d="M63.7482 8.91119V55.6339C63.7482 60.11 60.1101 63.7481 55.6136 63.7481H8.89087C4.41481 63.7481 0.776733 60.11 0.776733 55.6339V8.91119C0.776733 4.41469 4.41481 0.776611 8.89087 0.776611H55.6136C60.1101 0.776611 63.7482 4.41469 63.7482 8.91119ZM59.8853 8.91119C59.8853 6.56075 57.964 4.63952 55.6136 4.63952H23.5862C23.5862 4.63952 11.1205 4.63952 8.89087 4.63952C6.66123 4.63952 4.63964 6.2911 4.63964 8.91119C4.63964 11.5313 4.63964 55.6339 4.63964 55.6339C4.63964 57.9844 6.54043 59.8852 8.89087 59.8852H55.6136C57.964 59.8852 59.8853 57.9844 59.8853 55.6339V8.91119Z" fill="url(#paint1_linear_14_165)"/>
<g opacity="0.5">
<path d="M8.89094 60.3348H55.6137C57.9641 60.3348 59.8853 58.4136 59.8853 56.0632V55.6339C59.8853 57.9844 57.9641 59.8852 55.6137 59.8852H8.89094C6.5405 59.8852 4.63971 57.9844 4.63971 55.6339V56.0632C4.63971 58.4136 6.5405 60.3348 8.89094 60.3348Z" fill="#F2F2F2"/>
<path d="M55.6136 0.776611H8.89087C4.41481 0.776611 0.776733 4.41469 0.776733 8.91119V9.3404C0.776733 4.86434 4.41481 1.22626 8.89087 1.22626H55.6136C60.1101 1.22626 63.7482 4.86434 63.7482 9.3404V8.91119C63.7482 4.41469 60.1101 0.776611 55.6136 0.776611Z" fill="#F2F2F2"/>
</g>
<path fill-rule="evenodd" clip-rule="evenodd" d="M59.8852 8.91126V55.634C59.8852 57.9844 57.964 59.8852 55.6136 59.8852H8.89082C6.54038 59.8852 4.63959 57.9844 4.63959 55.634V8.91126C4.63959 6.66123 6.29116 4.63959 8.89082 4.63959C8.89082 4.63959 22.1759 4.63959 23.5862 4.63959H55.6136C57.964 4.63959 59.8852 6.56082 59.8852 8.91126ZM23.5862 5.41625C22.3803 5.41625 8.89082 5.41625 8.89082 5.41625C7.03129 5.55102 5.41625 6.80618 5.41625 8.91126V55.634C5.41625 57.5552 6.96959 59.1086 8.89082 59.1086H55.6136C57.5348 59.1086 59.1086 57.5552 59.1086 55.634V8.91126C59.1086 6.99003 57.5348 5.41625 55.6136 5.41625H23.5862Z" fill="#301405"/>
<path d="M35.1564 28.6802V22.2041C35.1564 21.8605 35.2928 21.5311 35.5357 21.2882C35.7786 21.0453 36.1081 20.9088 36.4516 20.9088C36.7951 20.9088 37.1246 21.0453 37.3675 21.2882C37.6104 21.5311 37.7468 21.8605 37.7468 22.2041V25.5539L44.6019 18.6972C44.8449 18.4542 45.1746 18.3176 45.5183 18.3176C45.862 18.3176 46.1916 18.4542 46.4346 18.6972C46.6777 18.9402 46.8142 19.2699 46.8142 19.6136C46.8142 19.9573 46.6777 20.2869 46.4346 20.53L39.578 27.385H42.9278C43.2713 27.385 43.6008 27.5215 43.8437 27.7644C44.0866 28.0073 44.223 28.3367 44.223 28.6802C44.223 29.0238 44.0866 29.3532 43.8437 29.5961C43.6008 29.839 43.2713 29.9755 42.9278 29.9755H36.4516C36.1081 29.9755 35.7786 29.839 35.5357 29.5961C35.2928 29.3532 35.1564 29.0238 35.1564 28.6802ZM28.6802 35.1564H22.204C21.8605 35.1564 21.531 35.2929 21.2881 35.5358C21.0452 35.7787 20.9088 36.1081 20.9088 36.4517C20.9088 36.7952 21.0452 37.1246 21.2881 37.3675C21.531 37.6104 21.8605 37.7469 22.204 37.7469H25.5538L18.6971 44.6019C18.4541 44.845 18.3176 45.1746 18.3176 45.5183C18.3176 45.862 18.4541 46.1917 18.6971 46.4347C18.9402 46.6777 19.2698 46.8143 19.6135 46.8143C19.9572 46.8143 20.2869 46.6777 20.5299 46.4347L27.3849 39.578V42.9279C27.3849 43.2714 27.5214 43.6008 27.7643 43.8437C28.0072 44.0866 28.3367 44.2231 28.6802 44.2231C29.0237 44.2231 29.3531 44.0866 29.5961 43.8437C29.839 43.6008 29.9754 43.2714 29.9754 42.9279V36.4517C29.9754 36.1081 29.839 35.7787 29.5961 35.5358C29.3531 35.2929 29.0237 35.1564 28.6802 35.1564ZM39.578 37.7469H42.9278C43.2713 37.7469 43.6008 37.6104 43.8437 37.3675C44.0866 37.1246 44.223 36.7952 44.223 36.4517C44.223 36.1081 44.0866 35.7787 43.8437 35.5358C43.6008 35.2929 43.2713 35.1564 42.9278 35.1564H36.4516C36.1081 35.1564 35.7786 35.2929 35.5357 35.5358C35.2928 35.7787 35.1564 36.1081 35.1564 36.4517V42.9279C35.1564 43.2714 35.2928 43.6008 35.5357 43.8437C35.7786 44.0866 36.1081 44.2231 36.4516 44.2231C36.7951 44.2231 37.1246 44.0866 37.3675 43.8437C37.6104 43.6008 37.7468 43.2714 37.7468 42.9279V39.578L44.6019 46.4347C44.7222 46.555 44.8651 46.6505 45.0223 46.7156C45.1796 46.7808 45.3481 46.8143 45.5183 46.8143C45.6885 46.8143 45.857 46.7808 46.0142 46.7156C46.1714 46.6505 46.3143 46.555 46.4346 46.4347C46.555 46.3144 46.6504 46.1715 46.7156 46.0143C46.7807 45.857 46.8142 45.6885 46.8142 45.5183C46.8142 45.3481 46.7807 45.1796 46.7156 45.0224C46.6504 44.8652 46.555 44.7223 46.4346 44.6019L39.578 37.7469ZM28.6802 20.9088C28.3367 20.9088 28.0072 21.0453 27.7643 21.2882C27.5214 21.5311 27.3849 21.8605 27.3849 22.2041V25.5539L20.5299 18.6972C20.2869 18.4542 19.9572 18.3176 19.6135 18.3176C19.2698 18.3176 18.9402 18.4542 18.6971 18.6972C18.4541 18.9402 18.3176 19.2699 18.3176 19.6136C18.3176 19.9573 18.4541 20.2869 18.6971 20.53L25.5538 27.385H22.204C21.8605 27.385 21.531 27.5215 21.2881 27.7644C21.0452 28.0073 20.9088 28.3367 20.9088 28.6802C20.9088 29.0238 21.0452 29.3532 21.2881 29.5961C21.531 29.839 21.8605 29.9755 22.204 29.9755H28.6802C29.0237 29.9755 29.3531 29.839 29.5961 29.5961C29.839 29.3532 29.9754 29.0238 29.9754 28.6802V22.2041C29.9754 21.8605 29.839 21.5311 29.5961 21.2882C29.3531 21.0453 29.0237 20.9088 28.6802 20.9088Z" fill="#343330"/>
<path d="M35.1564 28.6802V22.2041C35.1564 21.8605 35.2928 21.5311 35.5357 21.2882C35.7786 21.0453 36.1081 20.9088 36.4516 20.9088C36.7951 20.9088 37.1246 21.0453 37.3675 21.2882C37.6104 21.5311 37.7468 21.8605 37.7468 22.2041V25.5539L44.6019 18.6972C44.8449 18.4542 45.1746 18.3176 45.5183 18.3176C45.862 18.3176 46.1916 18.4542 46.4346 18.6972C46.6777 18.9402 46.8142 19.2699 46.8142 19.6136C46.8142 19.9573 46.6777 20.2869 46.4346 20.53L39.578 27.385H42.9278C43.2713 27.385 43.6008 27.5215 43.8437 27.7644C44.0866 28.0073 44.223 28.3367 44.223 28.6802C44.223 29.0238 44.0866 29.3532 43.8437 29.5961C43.6008 29.839 43.2713 29.9755 42.9278 29.9755H36.4516C36.1081 29.9755 35.7786 29.839 35.5357 29.5961C35.2928 29.3532 35.1564 29.0238 35.1564 28.6802ZM28.6802 35.1564H22.204C21.8605 35.1564 21.531 35.2929 21.2881 35.5358C21.0452 35.7787 20.9088 36.1081 20.9088 36.4517C20.9088 36.7952 21.0452 37.1246 21.2881 37.3675C21.531 37.6104 21.8605 37.7469 22.204 37.7469H25.5538L18.6971 44.6019C18.4541 44.845 18.3176 45.1746 18.3176 45.5183C18.3176 45.862 18.4541 46.1917 18.6971 46.4347C18.9402 46.6777 19.2698 46.8143 19.6135 46.8143C19.9572 46.8143 20.2869 46.6777 20.5299 46.4347L27.3849 39.578V42.9279C27.3849 43.2714 27.5214 43.6008 27.7643 43.8437C28.0072 44.0866 28.3367 44.2231 28.6802 44.2231C29.0237 44.2231 29.3531 44.0866 29.5961 43.8437C29.839 43.6008 29.9754 43.2714 29.9754 42.9279V36.4517C29.9754 36.1081 29.839 35.7787 29.5961 35.5358C29.3531 35.2929 29.0237 35.1564 28.6802 35.1564ZM39.578 37.7469H42.9278C43.2713 37.7469 43.6008 37.6104 43.8437 37.3675C44.0866 37.1246 44.223 36.7952 44.223 36.4517C44.223 36.1081 44.0866 35.7787 43.8437 35.5358C43.6008 35.2929 43.2713 35.1564 42.9278 35.1564H36.4516C36.1081 35.1564 35.7786 35.2929 35.5357 35.5358C35.2928 35.7787 35.1564 36.1081 35.1564 36.4517V42.9279C35.1564 43.2714 35.2928 43.6008 35.5357 43.8437C35.7786 44.0866 36.1081 44.2231 36.4516 44.2231C36.7951 44.2231 37.1246 44.0866 37.3675 43.8437C37.6104 43.6008 37.7468 43.2714 37.7468 42.9279V39.578L44.6019 46.4347C44.7222 46.555 44.8651 46.6505 45.0223 46.7156C45.1796 46.7808 45.3481 46.8143 45.5183 46.8143C45.6885 46.8143 45.857 46.7808 46.0142 46.7156C46.1714 46.6505 46.3143 46.555 46.4346 46.4347C46.555 46.3144 46.6504 46.1715 46.7156 46.0143C46.7807 45.857 46.8142 45.6885 46.8142 45.5183C46.8142 45.3481 46.7807 45.1796 46.7156 45.0224C46.6504 44.8652 46.555 44.7223 46.4346 44.6019L39.578 37.7469ZM28.6802 20.9088C28.3367 20.9088 28.0072 21.0453 27.7643 21.2882C27.5214 21.5311 27.3849 21.8605 27.3849 22.2041V25.5539L20.5299 18.6972C20.2869 18.4542 19.9572 18.3176 19.6135 18.3176C19.2698 18.3176 18.9402 18.4542 18.6971 18.6972C18.4541 18.9402 18.3176 19.2699 18.3176 19.6136C18.3176 19.9573 18.4541 20.2869 18.6971 20.53L25.5538 27.385H22.204C21.8605 27.385 21.531 27.5215 21.2881 27.7644C21.0452 28.0073 20.9088 28.3367 20.9088 28.6802C20.9088 29.0238 21.0452 29.3532 21.2881 29.5961C21.531 29.839 21.8605 29.9755 22.204 29.9755H28.6802C29.0237 29.9755 29.3531 29.839 29.5961 29.5961C29.839 29.3532 29.9754 29.0238 29.9754 28.6802V22.2041C29.9754 21.8605 29.839 21.5311 29.5961 21.2882C29.3531 21.0453 29.0237 20.9088 28.6802 20.9088Z" fill="url(#paint2_linear_14_165)"/>
<defs>
<radialGradient id="paint0_radial_14_165" cx="0" cy="0" r="1" gradientUnits="userSpaceOnUse" gradientTransform="translate(32.2576 32.2636) scale(29.0069 29.0069)">
<stop stop-color="#311800"/>
<stop offset="1" stop-color="#160A00"/>
</radialGradient>
<linearGradient id="paint1_linear_14_165" x1="0.771418" y1="63.7499" x2="0.771418" y2="0.777227" gradientUnits="userSpaceOnUse">
<stop stop-color="#AE5D23"/>
<stop offset="0.506" stop-color="#FFC87F"/>
<stop offset="1" stop-color="#B1603C"/>
</linearGradient>
<linearGradient id="paint2_linear_14_165" x1="32.5659" y1="46.8582" x2="32.5663" y2="18.2737" gradientUnits="userSpaceOnUse">
<stop stop-color="#AE5D23"/>
<stop offset="0.506" stop-color="#FFC87F"/>
<stop offset="1" stop-color="#B1603C"/>
</linearGradient>
</defs>
</svg>
