<svg width="92" height="92" viewBox="0 0 92 92" fill="none" xmlns="http://www.w3.org/2000/svg">
<path d="M3.42816 45.6989C3.42816 69.0567 22.3701 87.9987 45.7279 87.9987C69.0858 87.9987 87.9987 69.0567 87.9987 45.6989C87.9987 22.341 69.0858 3.42816 45.7279 3.42816C22.3701 3.42816 3.42816 22.341 3.42816 45.6989Z" fill="url(#paint0_radial_14_123)"/>
<path fill-rule="evenodd" clip-rule="evenodd" d="M87.9987 45.6989C87.9987 69.0567 69.0858 87.9987 45.7279 87.9987C22.3701 87.9987 3.42816 69.0567 3.42816 45.6989C3.42816 22.341 22.3701 3.42816 45.7279 3.42816C69.0858 3.42816 87.9987 22.341 87.9987 45.6989ZM8.07649 45.6989C8.07649 66.4711 24.9557 83.3503 45.7279 83.3503C66.4711 83.3503 83.3503 66.4711 83.3503 45.6989C83.3503 24.9557 66.4711 8.07649 45.7279 8.07649C24.9557 8.07649 8.07649 24.9557 8.07649 45.6989Z" fill="#161616"/>
<path fill-rule="evenodd" clip-rule="evenodd" d="M1.104 45.6989C1.104 21.1209 21.1209 1.104 45.7279 1.104C70.306 1.104 90.3228 21.1209 90.3228 45.6989C90.3228 70.306 70.306 90.3228 45.7279 90.3228C21.1209 90.3228 1.104 70.306 1.104 45.6989ZM5.75233 45.6989C5.75233 67.7494 23.6774 85.6745 45.7279 85.6745C67.7494 85.6745 85.6745 67.7494 85.6745 45.6989C85.6745 23.6774 67.7494 5.75233 45.7279 5.75233C23.6774 5.75233 5.75233 23.6774 5.75233 45.6989Z" fill="url(#paint1_linear_14_123)"/>
<path fill-rule="evenodd" clip-rule="evenodd" d="M91.4268 45.6989C91.4268 70.9161 70.916 91.4268 45.7279 91.4268C20.5107 91.4268 0 70.9161 0 45.6989C0 20.5108 20.5107 0 45.7279 0C70.916 0 91.4268 20.5108 91.4268 45.6989ZM1.10397 45.6989C1.10397 70.306 21.1208 90.3228 45.7279 90.3228C70.3059 90.3228 90.3228 70.306 90.3228 45.6989C90.3228 21.1209 70.3059 1.10399 45.7279 1.10399C21.1208 1.10399 1.10397 21.1209 1.10397 45.6989Z" fill="#301405"/>
<defs>
<radialGradient id="paint0_radial_14_123" cx="0" cy="0" r="1" gradientUnits="userSpaceOnUse" gradientTransform="translate(45.7195 45.705) rotate(180) scale(42.2847)">
<stop stop-color="#505050"/>
<stop offset="1" stop-color="#313131"/>
</radialGradient>
<linearGradient id="paint1_linear_14_123" x1="1.11185" y1="90.3135" x2="1.11185" y2="1.09645" gradientUnits="userSpaceOnUse">
<stop stop-color="#AE5D23"/>
<stop offset="0.506" stop-color="#FFC87F"/>
<stop offset="1" stop-color="#B1603C"/>
</linearGradient>
</defs>
</svg>