<svg width="219" height="62" viewBox="0 0 219 62" fill="none" xmlns="http://www.w3.org/2000/svg">
<path d="M195.923 48.277H33.4678V12.6324H195.923V48.277Z" fill="url(#paint0_linear_14_129)"/>
<g opacity="0.2">
<path fill-rule="evenodd" clip-rule="evenodd" d="M197.309 12.6323V48.277C197.309 48.8139 196.679 49.2614 195.923 49.2614H33.4677C32.6699 49.2614 32.0401 48.8139 32.0401 48.277V12.6323C32.0401 12.0954 32.6699 11.648 33.4677 11.648H195.923C196.679 11.648 197.309 12.0954 197.309 12.6323ZM33.4677 12.6323V48.277H195.923V12.6323H33.4677Z" fill="#F2F2F2"/>
<path fill-rule="evenodd" clip-rule="evenodd" d="M197.309 12.6323V48.277C197.309 48.8139 196.679 49.2614 195.923 49.2614H33.4677C32.6699 49.2614 32.0401 48.8139 32.0401 48.277V12.6323C32.0401 12.0954 32.6699 11.648 33.4677 11.648H195.923C196.679 11.648 197.309 12.0954 197.309 12.6323ZM33.4677 12.6323V48.277H195.923V12.6323H33.4677Z" fill="url(#paint1_linear_14_129)"/>
</g>
<path fill-rule="evenodd" clip-rule="evenodd" d="M59.1379 29.4632C59.1379 29.7742 59.0989 30.0853 59.0989 30.3574C59.0989 30.487 59.086 30.6166 59.0601 30.7462C59.086 30.8499 59.0989 30.9665 59.0989 31.0961C59.0989 31.3682 59.1379 31.6792 59.1379 31.9902C59.1379 48.1633 45.9972 61.304 29.8241 61.304C13.6511 61.304 0.471558 48.1633 0.471558 31.9902C0.471558 31.6792 0.510426 31.3682 0.510426 31.0961C0.510426 30.9665 0.523375 30.8499 0.549294 30.7462C0.523375 30.6166 0.510426 30.487 0.510426 30.3574C0.510426 30.0853 0.471558 29.7742 0.471558 29.4632C0.471558 13.2901 13.6511 0.149536 29.8241 0.149536C45.9972 0.149536 59.1379 13.2901 59.1379 29.4632ZM1.94888 29.4632C1.94888 29.8909 1.98778 30.3185 2.02666 30.7462C1.98778 31.135 1.94888 31.5626 1.94888 31.9902C1.94888 47.3469 14.4286 59.8266 29.8241 59.8266C45.1808 59.8266 57.6605 47.3469 57.6605 31.9902C57.6605 31.5626 57.6216 31.135 57.5828 30.7462C57.6216 30.3185 57.6605 29.8909 57.6605 29.4632C57.6605 14.1066 45.1808 1.62686 29.8241 1.62686C14.4286 1.62686 1.94888 14.1066 1.94888 29.4632Z" fill="#3A2000"/>
<path d="M57.6605 31.9903C57.6605 47.347 45.1808 59.8267 29.8241 59.8267C14.4286 59.8267 1.94885 47.347 1.94885 31.9903C1.94885 16.5948 14.4286 4.11511 29.8241 4.11511C45.1808 4.11511 57.6605 16.5948 57.6605 31.9903Z" fill="#AD5E00"/>
<path d="M57.6605 29.4632C57.6605 44.8588 45.1808 57.3385 29.8241 57.3385C14.4286 57.3385 1.94885 44.8588 1.94885 29.4632C1.94885 14.1066 14.4286 1.62689 29.8241 1.62689C45.1808 1.62689 57.6605 14.1066 57.6605 29.4632Z" fill="url(#paint2_linear_14_129)"/>
<g opacity="0.5">
<path d="M29.8241 2.48223C45.0641 2.48223 57.4272 14.7287 57.6605 29.8909C57.6605 29.7613 57.6605 29.6188 57.6605 29.4632C57.6605 14.1066 45.1808 1.62689 29.8241 1.62689C14.4286 1.62689 1.94885 14.1066 1.94885 29.4632C1.94885 29.6188 1.94885 29.7613 1.94885 29.8909C2.18212 14.7287 14.5841 2.48223 29.8241 2.48223Z" fill="#F2F2F2"/>
</g>
<path d="M52.6452 29.4632C52.6452 42.0984 42.4204 52.3233 29.824 52.3233C17.1888 52.3233 6.96399 42.0984 6.96399 29.4632C6.96399 16.8669 17.1888 6.64209 29.824 6.64209C42.4204 6.64209 52.6452 16.8669 52.6452 29.4632Z" fill="url(#paint3_linear_14_129)"/>
<path opacity="0.7" fill-rule="evenodd" clip-rule="evenodd" d="M52.6452 29.4632C52.6452 42.0984 42.4204 52.3233 29.824 52.3233C17.1888 52.3233 6.96399 42.0984 6.96399 29.4632C6.96399 16.8669 17.1888 6.64209 29.824 6.64209C42.4204 6.64209 52.6452 16.8669 52.6452 29.4632ZM7.78041 29.4632C7.78041 41.6319 17.6553 51.5068 29.824 51.5068C41.9538 51.5068 51.8287 41.6319 51.8287 29.4632C51.8287 17.3334 41.9538 7.45851 29.824 7.45851C17.6553 7.45851 7.78041 17.3334 7.78041 29.4632Z" fill="#A44D00"/>
<path d="M29.824 6.64209C17.1888 6.64209 6.96399 16.8669 6.96399 29.4632C6.96399 29.8131 7.0029 30.1241 7.04177 30.4352C7.54718 18.3053 17.5387 8.58597 29.824 8.58597C42.0705 8.58597 52.062 18.3053 52.6063 30.4352C52.6063 30.1241 52.6452 29.8131 52.6452 29.4632C52.6452 16.8669 42.4204 6.64209 29.824 6.64209Z" fill="#A44D00"/>
<path d="M45.6084 31.4071C45.6084 40.1546 38.5327 47.1915 29.8241 47.1915C21.0766 47.1915 14.0398 40.1546 14.0398 31.4071C14.0398 22.6985 21.0766 15.6617 29.8241 15.6617C38.5327 15.6617 45.6084 22.6985 45.6084 31.4071Z" fill="#A44D00"/>
<path d="M45.6084 29.4632C45.6084 38.2107 38.5327 45.2476 29.8241 45.2476C21.0766 45.2476 14.0398 38.2107 14.0398 29.4632C14.0398 20.7547 21.0766 13.679 29.8241 13.679C38.5327 13.679 45.6084 20.7547 45.6084 29.4632Z" fill="url(#paint4_linear_14_129)"/>
<path d="M217.785 30.5463C217.785 41.8764 208.589 51.0718 197.259 51.0718C185.929 51.0718 176.734 41.8764 176.734 30.5463C176.734 19.2163 185.929 10.0538 197.259 10.0538C208.589 10.0538 217.785 19.2163 217.785 30.5463Z" fill="url(#paint5_linear_14_129)"/>
<g opacity="0.5">
<path d="M197.259 11.0061C208.425 11.0061 217.489 19.9388 217.752 31.0389C217.752 30.8747 217.785 30.7105 217.785 30.5463C217.785 19.2163 208.589 10.0538 197.259 10.0538C185.929 10.0538 176.734 19.2163 176.734 30.5463C176.734 30.7105 176.767 30.8747 176.767 31.0389C177.029 19.9388 186.093 11.0061 197.259 11.0061Z" fill="#F2F2F2"/>
</g>
<path fill-rule="evenodd" clip-rule="evenodd" d="M219 30.5463C219 42.566 209.246 52.3197 197.259 52.3197C185.24 52.3197 175.486 42.566 175.486 30.5463C175.486 18.5595 185.24 8.80582 197.259 8.80582C209.246 8.80582 219 18.5595 219 30.5463ZM176.734 30.5463C176.734 41.8764 185.929 51.0718 197.259 51.0718C208.589 51.0718 217.785 41.8764 217.785 30.5463C217.785 19.2163 208.589 10.0538 197.259 10.0538C185.929 10.0538 176.734 19.2163 176.734 30.5463Z" fill="#1A1A1A"/>
<defs>
<linearGradient id="paint0_linear_14_129" x1="106.942" y1="48.2639" x2="106.942" y2="12.6389" gradientUnits="userSpaceOnUse">
<stop stop-color="#505050"/>
<stop offset="0.79" stop-color="#313131"/>
</linearGradient>
<linearGradient id="paint1_linear_14_129" x1="32.0262" y1="49.2625" x2="32.0262" y2="11.6483" gradientUnits="userSpaceOnUse">
<stop stop-color="#AE5D23"/>
<stop offset="0.506" stop-color="#FFC87F"/>
<stop offset="1" stop-color="#B1603C"/>
</linearGradient>
<linearGradient id="paint2_linear_14_129" x1="1.94963" y1="57.3335" x2="1.94963" y2="1.61834" gradientUnits="userSpaceOnUse">
<stop stop-color="#F5BB76"/>
<stop offset="1" stop-color="#B36429"/>
</linearGradient>
<linearGradient id="paint3_linear_14_129" x1="6.97604" y1="52.3065" x2="6.97604" y2="6.64481" gradientUnits="userSpaceOnUse">
<stop stop-color="#A75400"/>
<stop offset="0.822" stop-color="#E8A23F"/>
</linearGradient>
<linearGradient id="paint4_linear_14_129" x1="14.025" y1="45.2581" x2="14.025" y2="13.6937" gradientUnits="userSpaceOnUse">
<stop stop-color="#B6672C"/>
<stop offset="1" stop-color="#FFEDD7"/>
</linearGradient>
<linearGradient id="paint5_linear_14_129" x1="176.736" y1="51.0774" x2="176.736" y2="10.0413" gradientUnits="userSpaceOnUse">
<stop stop-color="#BDC3C7"/>
<stop offset="1" stop-color="#ECF0F1"/>
</linearGradient>
</defs>
</svg>
